<svg xmlns="http://www.w3.org/2000/svg" viewBox="0 0 171.02429 93.26819"><defs><style>.a{fill:#d7d7d7;fill-rule:evenodd;}.b,.p{fill:#5d6069;}.c{fill:#1f7a34;}.d,.o{fill:#1a1a1a;}.e{fill:#424242;}.f{fill:#303030;}.g{fill:#212121;}.h{fill:#606060;}.i{fill:#2b2b2b;}.j{fill:#87ad34;}.k{opacity:0.2;}.l{fill:#22420d;}.m,.n{fill:none;}.m{stroke:#f2f2f2;stroke-linecap:round;stroke-opacity:0.2;stroke-width:0.0914px;}.n{stroke:#1a1a1a;stroke-opacity:0.4;stroke-width:0.5484px;}.o{fill-opacity:0.15;}.p{font-size:8.5px;font-family:Roboto-Bold, Roboto;font-weight:700;}</style></defs><title>lcd_ebotics</title><path class="a" d="M167.02429,0h-49.231c.008.09692.02912.18994.02912.28894a3.51563,3.51563,0,1,1-7.03125,0c0-.099.02112-.192.02911-.28894H60.56293c.008.09692.02911.18994.02911.28894a3.51563,3.51563,0,1,1-7.03125,0c0-.099.02112-.192.02911-.28894H4A4,4,0,0,0,0,4V89.26813a4,4,0,0,0,4,4H167.02429a4,4,0,0,0,4-4V4A4,4,0,0,0,167.02429,0Z"/><path class="b" d="M110.45142,12.46716a.63889.63889,0,0,0-.249-.541,3.26112,3.26112,0,0,0-.89648-.39844,6.341,6.341,0,0,1-1.02539-.41309,1.67623,1.67623,0,0,1-1.0293-1.498,1.46181,1.46181,0,0,1,.27637-.874,1.801,1.801,0,0,1,.793-.59961,2.99179,2.99179,0,0,1,1.16015-.21582,2.71268,2.71268,0,0,1,1.15332.23438,1.83988,1.83988,0,0,1,.78711.66211,1.73353,1.73353,0,0,1,.2793.97168H110.4563a.8156.8156,0,0,0-.26172-.64551,1.07305,1.07305,0,0,0-.73437-.23047,1.15363,1.15363,0,0,0-.71.19238.6095.6095,0,0,0-.25293.50879.58389.58389,0,0,0,.2959.49414,3.3611,3.3611,0,0,0,.874.373,3.77059,3.77059,0,0,1,1.54785.793,1.5762,1.5762,0,0,1,.48535,1.17871,1.45257,1.45257,0,0,1-.59277,1.23047,2.59693,2.59693,0,0,1-1.59864.44629,3.08716,3.08716,0,0,1-1.26953-.25488,2.02026,2.02026,0,0,1-.874-.69922,1.79683,1.79683,0,0,1-.30078-1.0293h1.249q0,.999,1.19531,1a1.16364,1.16364,0,0,0,.69336-.18066A.587.587,0,0,0,110.45142,12.46716Z"/><path class="b" d="M119.65868,13.0531h2.64355v1h-3.88965v-6.043h1.2461Z"/><path class="b" d="M117.469,12.04041a2.13667,2.13667,0,0,1-.71972,1.53515,2.52792,2.52792,0,0,1-1.71192.56055,2.272,2.272,0,0,1-1.82812-.78223,3.20664,3.20664,0,0,1-.666-2.14844V10.8363a3.61427,3.61427,0,0,1,.30664-1.53515,2.30339,2.30339,0,0,1,.87793-1.01953,2.74316,2.74316,0,0,1,3.01075.206,2.2939,2.2939,0,0,1,.73925,1.57324h-1.24511a1.2641,1.2641,0,0,0-.32618-.84961,1.2047,1.2047,0,0,0-.85253-.26367,1.059,1.059,0,0,0-.93165.44629,2.49743,2.49743,0,0,0-.31738,1.38477v.45605a2.67886,2.67886,0,0,0,.2959,1.43164,1.03926,1.03926,0,0,0,.93652.45313,1.22873,1.22873,0,0,0,.86133-.26368,1.18855,1.18855,0,0,0,.3252-.81542Z"/><path class="b" d="M52.68091,12.46667a.6389.6389,0,0,0-.249-.541,3.26112,3.26112,0,0,0-.89648-.39844A6.342,6.342,0,0,1,50.51,11.11414a1.67626,1.67626,0,0,1-1.0293-1.49805,1.46182,1.46182,0,0,1,.27637-.874,1.80091,1.80091,0,0,1,.793-.59961,2.99165,2.99165,0,0,1,1.16016-.21582,2.71271,2.71271,0,0,1,1.15332.23437,1.83985,1.83985,0,0,1,.7871.66211,1.73355,1.73355,0,0,1,.2793.97168H52.68579a.81562.81562,0,0,0-.26172-.64551,1.0731,1.0731,0,0,0-.73437-.23047,1.15358,1.15358,0,0,0-.71.19239.60945.60945,0,0,0-.25293.50879.58389.58389,0,0,0,.2959.49414,3.36123,3.36123,0,0,0,.874.373,3.77052,3.77052,0,0,1,1.54785.793,1.5762,1.5762,0,0,1,.48535,1.17871,1.45253,1.45253,0,0,1-.59277,1.23047,2.59692,2.59692,0,0,1-1.59863.44629,3.08717,3.08717,0,0,1-1.26954-.25488,2.02026,2.02026,0,0,1-.874-.69922,1.79691,1.79691,0,0,1-.30078-1.0293h1.249q0,.999,1.19532,1a1.16363,1.16363,0,0,0,.69335-.18066A.587.587,0,0,0,52.68091,12.46667Z"/><path class="b" d="M54.77271,14.05261v-6.043h1.85937a2.82451,2.82451,0,0,1,1.42578.35938,2.49957,2.49957,0,0,1,.98242,1.02051,3.16054,3.16054,0,0,1,.35254,1.50488v.27734a3.16641,3.16641,0,0,1-.34668,1.499,2.48314,2.48314,0,0,1-.97754,1.0166,2.854,2.854,0,0,1-1.42382.36523ZM56.0188,9.01843v4.03418h.60156a1.35152,1.35152,0,0,0,1.11621-.47754,2.162,2.162,0,0,0,.39453-1.36523V10.8905A2.197,2.197,0,0,0,57.74927,9.493a1.34962,1.34962,0,0,0-1.11719-.47461Z"/><path class="b" d="M63.62231,12.8075H61.43872l-.41406,1.24511H59.70044l2.249-6.043h1.1543l2.26172,6.043H64.04126Zm-1.84668-1.00879h1.51075L62.52661,9.537Z"/><path class="c" d="M155.32642,77.55271V23.64385H15.12442V77.55271Z"/><path class="d" d="M126.25011,33.47876a.70769.70769,0,0,0-.70561-.70562H24.50235a.70769.70769,0,0,0-.70561.70562v.38976a.70769.70769,0,0,0,.70561.70562H125.54618a.70878.70878,0,0,0,.70561-.70562v-.38976Z"/><path class="e" d="M125.8973,34.11045a.48785.48785,0,0,0-.50569-.46369H24.69556a.46621.46621,0,1,0,0,.92906H125.39329A.48988.48988,0,0,0,125.8973,34.11045Z"/><path class="f" d="M152.094,59.94933V41.39506h.53257V27.88425h-.08233l-1.33393-1.33394v-.46537H19.04225v.46369L17.71,27.88425h-.084V41.39506h.53593V59.951H17.626V73.45847h.08232l1.33227,1.3373v.46369h.00168V75.0629h0v-.17305h132.163v.17305h0v.19656h.00168v-.46369l1.33562-1.3373h.08233V59.951H152.094Zm-.88537-33.66447h0v.17472H19.04561V26.0883h132.163Z"/><polygon class="f" points="153 41.395 153 28.338 153 27.884 152.998 27.884 152.998 41.395 153 41.395"/><polygon class="f" points="152.998 73.457 153 73.457 153 73.007 153 59.949 152.998 59.949 152.998 73.457"/><rect class="g" x="19.04561" y="26.0883" width="132.16304" height="0.19656"/><rect class="h" x="19.04561" y="26.28654" width="132.16304" height="0.17304"/><rect class="h" x="19.04561" y="26.28486" width="132.16304" height="0.00168"/><rect class="g" x="17.2547" y="59.94933" width="0.19656" height="13.50746"/><rect class="g" x="17.2547" y="27.88425" width="0.19656" height="13.51081"/><rect class="h" x="17.45294" y="59.94933" width="0.17472" height="13.50746"/><rect class="h" x="17.45294" y="27.88425" width="0.17472" height="13.51081"/><rect class="h" x="17.45126" y="27.88425" width="0.00168" height="13.51081"/><rect class="h" x="17.45126" y="59.94933" width="0.00168" height="13.50746"/><rect class="g" x="152.79965" y="27.88425" width="0.19824" height="13.51081"/><rect class="g" x="152.79965" y="59.94933" width="0.19824" height="13.50746"/><rect class="h" x="152.6266" y="59.94933" width="0.17304" height="13.50746"/><rect class="h" x="152.6266" y="27.88425" width="0.17304" height="13.51081"/><polygon class="i" points="19.046 75.063 19.046 75.259 19.506 75.259 150.747 75.259 151.209 75.259 151.209 75.063 19.046 75.063"/><rect class="h" x="19.04561" y="74.88986" width="132.16304" height="0.17304"/><path class="j" d="M147.16482,63.92765a2.62068,2.62068,0,0,1-2.61077,2.61413H25.70022a2.62212,2.62212,0,0,1-2.61245-2.61413V37.41507a2.62067,2.62067,0,0,1,2.61245-2.61245H144.55574a2.61924,2.61924,0,0,1,2.61077,2.61245V63.92765Z"/><g class="k"><path class="l" d="M25.70022,34.8043a2.62176,2.62176,0,0,0-2.61245,2.61245v26.5109a2.62212,2.62212,0,0,0,2.61245,2.61413h1.5137a2.6196,2.6196,0,0,1-2.61077-2.61413V38.287a2.62032,2.62032,0,0,1,2.61077-2.61245H146.48105a2.60142,2.60142,0,0,0-1.92868-.87194H25.70022Zm121.46124,2.59565v26.5445l.00168-.0168V37.41507Z"/></g><path class="d" d="M148.27029,70.87794a.87225.87225,0,0,0-.87025-.86858H22.85424a.87224.87224,0,0,0-.87025.86858v.48049a.87512.87512,0,0,0,.87025.87193H147.4a.874.874,0,0,0,.87025-.87193Z"/><path class="e" d="M147.83683,71.65747a.60208.60208,0,0,0-.62329-.57289H23.09281a.57493.57493,0,1,0,0,1.14578H147.21186A.60365.60365,0,0,0,147.83683,71.65747Z"/><line class="m" x1="17.76543" y1="27.97833" x2="19.14137" y2="26.60239"/><line class="m" x1="19.15649" y1="74.73529" x2="17.78055" y2="73.35767"/><path class="n" d="M147.16314,63.92765a2.62321,2.62321,0,0,1-2.61245,2.61413H25.70022a2.62212,2.62212,0,0,1-2.61245-2.61413V37.41507a2.62176,2.62176,0,0,1,2.61245-2.61245H144.55238a2.62176,2.62176,0,0,1,2.61245,2.61245V63.92765Z"/><rect class="o" x="29.39124" y="51.73734" width="6.53028" height="10.7606"/><rect class="o" x="38.06693" y="51.73734" width="6.52692" height="10.7606"/><rect class="o" x="46.74261" y="51.73734" width="6.53028" height="10.7606"/><rect class="o" x="55.41998" y="51.73734" width="6.53196" height="10.7606"/><rect class="o" x="64.09734" y="51.73734" width="6.5286" height="10.7606"/><rect class="o" x="29.39124" y="38.84814" width="6.53028" height="10.75892"/><rect class="o" x="38.06693" y="38.84814" width="6.52692" height="10.75892"/><rect class="o" x="46.74261" y="38.84814" width="6.53028" height="10.75892"/><rect class="o" x="55.41998" y="38.84814" width="6.53196" height="10.75892"/><rect class="o" x="64.09734" y="38.84814" width="6.5286" height="10.75892"/><rect class="o" x="73.07207" y="51.73734" width="6.53028" height="10.7606"/><rect class="o" x="81.74775" y="51.73734" width="6.52692" height="10.7606"/><rect class="o" x="90.42343" y="51.73734" width="6.53028" height="10.7606"/><rect class="o" x="99.1008" y="51.73734" width="6.53196" height="10.7606"/><rect class="o" x="107.77816" y="51.73734" width="6.5286" height="10.7606"/><rect class="o" x="73.07207" y="38.84814" width="6.53028" height="10.75892"/><rect class="o" x="81.74775" y="38.84814" width="6.52692" height="10.75892"/><rect class="o" x="90.42343" y="38.84814" width="6.53028" height="10.75892"/><rect class="o" x="99.1008" y="38.84814" width="6.53196" height="10.75892"/><rect class="o" x="107.77816" y="38.84814" width="6.5286" height="10.75892"/><rect class="o" x="116.88393" y="51.73734" width="6.53028" height="10.7606"/><rect class="o" x="125.5613" y="51.73734" width="6.53196" height="10.7606"/><rect class="o" x="134.23866" y="51.73734" width="6.5286" height="10.7606"/><rect class="o" x="116.88393" y="38.84814" width="6.53028" height="10.75892"/><rect class="o" x="125.5613" y="38.84814" width="6.53196" height="10.75892"/><rect class="o" x="134.23866" y="38.84814" width="6.5286" height="10.75892"/><text class="p" transform="translate(71.13531 89.37462)">eBotics</text></svg>