<svg xmlns="http://www.w3.org/2000/svg" xmlns:xlink="http://www.w3.org/1999/xlink" viewBox="0 0 101.99762 66.87311"><defs><style>.a{fill:#d7d7d7;fill-rule:evenodd;}.b{fill:#5d6069;}.c,.d,.e,.f,.j,.k,.l{fill:none;}.c{stroke:blue;}.c,.d,.e,.f{stroke-width:1.0423px;}.d{stroke:#000;}.e{stroke:red;}.f{stroke:#ff9d00;}.g{fill:#0d0d0d;}.h{fill:#353535;}.i{fill:#d7d8d9;}.j{stroke:#58595b;}.j,.k,.l{stroke-linecap:round;stroke-linejoin:round;}.j,.l{stroke-width:0.6453px;}.k{stroke:#3f3f41;stroke-width:0.0724px;}.l{stroke:#303032;}.m{fill:url(#a);}.n{fill:url(#b);}.o{fill:url(#c);}.p{fill:url(#d);}</style><radialGradient id="a" cx="46.48594" cy="30.64299" r="1.00429" gradientUnits="userSpaceOnUse"><stop offset="0" stop-color="#b8b8b8"/><stop offset="1" stop-color="#6e6e6e"/></radialGradient><radialGradient id="b" cx="49.49452" cy="30.64299" r="1.00429" xlink:href="#a"/><radialGradient id="c" cx="52.5031" cy="30.64299" r="1.00429" xlink:href="#a"/><radialGradient id="d" cx="55.51168" cy="30.64299" r="1.00429" xlink:href="#a"/></defs><title>ultrasonidos 4cables</title><path class="a" d="M97.99762,0H4A4,4,0,0,0,0,4V62.87311a4,4,0,0,0,4,4H30.55939a3.52533,3.52533,0,0,1,7.05066,0h27.034a3.52533,3.52533,0,0,1,7.05066,0H97.99762a4,4,0,0,0,4-4V4A4,4,0,0,0,97.99762,0Z"/><path class="b" d="M32.95483,53.37482H31.21265V58.1131H30.04077V53.37482H28.322V52.4256h4.63281Z"/><path class="b" d="M35.72827,56.03107h-.93359v2.082H33.6228V52.4256h2.11328a2.38644,2.38644,0,0,1,1.55469.44922,1.55177,1.55177,0,0,1,.54688,1.26953,1.74978,1.74978,0,0,1-.252.9707,1.72014,1.72014,0,0,1-.76367.61914l1.23047,2.32422v.05469H36.79468Zm-.93359-.94922H35.74a.96937.96937,0,0,0,.68359-.22461.804.804,0,0,0,.24219-.61914.8583.8583,0,0,0-.22851-.63281.95054.95054,0,0,0-.70118-.23047h-.9414Z"/><path class="b" d="M39.97437,58.1131H38.80249V52.4256h1.17188Z"/><path class="b" d="M64.56909,55.64044h-2.25v1.53125h2.64063v.94141H61.14721V52.4256H64.9519v.94922H62.31909v1.35547h2.25Z"/><path class="b" d="M70.11206,56.21857a2.012,2.012,0,0,1-.67773,1.44531,2.37908,2.37908,0,0,1-1.61133.52734,2.13882,2.13882,0,0,1-1.72071-.73632,3.02043,3.02043,0,0,1-.62695-2.02149v-.34766a3.41537,3.41537,0,0,1,.28906-1.44531,2.16044,2.16044,0,0,1,.82618-.959,2.58181,2.58181,0,0,1,2.834.19336,2.16075,2.16075,0,0,1,.69531,1.48047H68.948a1.18556,1.18556,0,0,0-.30664-.79883,1.137,1.137,0,0,0-.80274-.248.99533.99533,0,0,0-.877.41992,2.34776,2.34776,0,0,0-.29883,1.30274v.42968a2.51731,2.51731,0,0,0,.2793,1.34766.97654.97654,0,0,0,.88086.42578,1.15852,1.15852,0,0,0,.81054-.248,1.119,1.119,0,0,0,.30665-.76758Z"/><path class="b" d="M75.5105,58.1131H74.33862V55.6756H72.05347v2.4375H70.88159V52.4256h1.17188v2.30469h2.28515V52.4256H75.5105Z"/><path class="c" d="M49.49452,32.4075V43.74532"/><path class="d" d="M55.51168,32.4075V43.74532"/><path class="e" d="M52.5031,32.4075V43.74532"/><path class="f" d="M46.48594,32.4075V43.74532"/><rect x="30.57593" y="11.33594" width="40.5351" height="25.39923"/><circle class="g" cx="30.57592" cy="24.03552" r="12.69962"/><circle class="h" cx="30.57592" cy="24.03681" r="12.69962"/><circle class="i" cx="30.57592" cy="24.03681" r="2.1544"/><path class="j" d="M18.594,26.27625A12.19042,12.19042,0,0,1,37.50556,14.00958"/><path class="k" d="M37.235,30.69587a9.41733,9.41733,0,1,0-13.31682,0A9.41238,9.41238,0,0,0,37.235,30.69587Z"/><path class="k" d="M24.65776,29.955a8.37,8.37,0,1,1,11.83631-.00129A8.36675,8.36675,0,0,1,24.65776,29.955Z"/><circle class="k" cx="30.57592" cy="24.03681" r="7.32522"/><path class="k" d="M26.13569,28.47962a6.28171,6.28171,0,1,1,8.87916-.00516A6.27751,6.27751,0,0,1,26.13569,28.47962Z"/><circle class="k" cx="30.57592" cy="24.03681" r="5.23267"/><path class="k" d="M27.61748,26.99525a4.18477,4.18477,0,1,1,5.91816,0A4.18087,4.18087,0,0,1,27.61748,26.99525Z"/><path class="l" d="M25.48756,35.1129A12.18972,12.18972,0,0,0,41.68422,19.018"/><circle class="g" cx="71.111" cy="24.03552" r="12.69962"/><circle class="h" cx="71.111" cy="24.03681" r="12.69962"/><circle class="i" cx="71.111" cy="24.03681" r="2.1544"/><path class="j" d="M59.12909,26.27625A12.19041,12.19041,0,0,1,78.04064,14.00958"/><path class="k" d="M77.77005,30.69587a9.41733,9.41733,0,1,0-13.31682,0A9.41238,9.41238,0,0,0,77.77005,30.69587Z"/><path class="k" d="M65.19284,29.955a8.37,8.37,0,1,1,11.83632-.00129A8.36677,8.36677,0,0,1,65.19284,29.955Z"/><circle class="k" cx="71.111" cy="24.03681" r="7.32522"/><path class="k" d="M66.67077,28.47962a6.28171,6.28171,0,1,1,8.87917-.00516A6.27751,6.27751,0,0,1,66.67077,28.47962Z"/><circle class="k" cx="71.111" cy="24.03681" r="5.23267"/><path class="k" d="M68.15257,26.99525a4.18477,4.18477,0,1,1,5.91815,0A4.18086,4.18086,0,0,1,68.15257,26.99525Z"/><path class="l" d="M66.02265,35.1129A12.18972,12.18972,0,0,0,82.2193,19.018"/><circle class="m" cx="46.48594" cy="30.64299" r="1.00429"/><circle class="n" cx="49.49452" cy="30.64299" r="1.00429"/><circle class="o" cx="52.5031" cy="30.64299" r="1.00429"/><circle class="p" cx="55.51168" cy="30.64299" r="1.00429"/></svg>