<svg xmlns="http://www.w3.org/2000/svg" xmlns:xlink="http://www.w3.org/1999/xlink" viewBox="0 0 101.99762 66.87311"><defs><style>.a{fill:#d7d7d7;fill-rule:evenodd;}.b{fill:#5d6069;}.c,.d,.e,.i,.j,.k{fill:none;}.c{stroke:#000;}.c,.d,.e{stroke-width:1.0423px;}.d{stroke:#fff;}.e{stroke:red;}.f{fill:#0d0d0d;}.g{fill:#353535;}.h{fill:#d7d8d9;}.i{stroke:#58595b;}.i,.j,.k{stroke-linecap:round;stroke-linejoin:round;}.i,.k{stroke-width:0.6453px;}.j{stroke:#3f3f41;stroke-width:0.0724px;}.k{stroke:#303032;}.l{fill:url(#a);}.m{fill:url(#b);}.n{fill:url(#c);}</style><radialGradient id="a" cx="48.10105" cy="30.64299" r="1.00429" gradientUnits="userSpaceOnUse"><stop offset="0" stop-color="#b8b8b8"/><stop offset="1" stop-color="#6e6e6e"/></radialGradient><radialGradient id="b" cx="51.10963" cy="30.64299" r="1.00429" xlink:href="#a"/><radialGradient id="c" cx="54.11821" cy="30.64299" r="1.00429" xlink:href="#a"/></defs><title>ultrasonidos 3cables</title><path class="a" d="M97.99762,0H4A4,4,0,0,0,0,4V62.87311a4,4,0,0,0,4,4H47.69858a3.52533,3.52533,0,0,1,7.05066,0H97.99762a4,4,0,0,0,4-4V4A4,4,0,0,0,97.99762,0Z"/><path class="b" d="M52.00662,56.617a.60239.60239,0,0,0-.23437-.51074,3.07352,3.07352,0,0,0-.84668-.376,5.88174,5.88174,0,0,1-.9668-.39063,1.57974,1.57974,0,0,1-.97168-1.41309,1.37869,1.37869,0,0,1,.26074-.82519,1.70042,1.70042,0,0,1,.748-.56543,2.815,2.815,0,0,1,1.09473-.2041,2.56383,2.56383,0,0,1,1.08886.22168,1.73393,1.73393,0,0,1,.74219.625,1.6367,1.6367,0,0,1,.26465.916H52.01053a.772.772,0,0,0-.2461-.60937,1.017,1.017,0,0,0-.69335-.2168,1.08642,1.08642,0,0,0-.66993.18164.57607.57607,0,0,0-.23925.48047.54982.54982,0,0,0,.28027.46582,3.1699,3.1699,0,0,0,.82422.35254,3.55289,3.55289,0,0,1,1.46094.748,1.48937,1.48937,0,0,1,.459,1.1123,1.3732,1.3732,0,0,1-.56055,1.16113,2.44733,2.44733,0,0,1-1.50781.4209,2.91791,2.91791,0,0,1-1.19824-.24023,1.89576,1.89576,0,0,1-.82422-.66016,1.69005,1.69005,0,0,1-.28418-.97168H49.99q0,.94483,1.12793.94434a1.09453,1.09453,0,0,0,.6543-.1709A.55456.55456,0,0,0,52.00662,56.617Z"/><path class="c" d="M48.10105,32.4075V43.74532"/><path class="d" d="M54.11821,32.4075V43.74532"/><path class="e" d="M51.10963,32.4075V43.74532"/><rect x="30.57593" y="11.33594" width="40.5351" height="25.39923"/><circle class="f" cx="30.57592" cy="24.03552" r="12.69962"/><circle class="g" cx="30.57592" cy="24.03681" r="12.69962"/><circle class="h" cx="30.57592" cy="24.03681" r="2.1544"/><path class="i" d="M18.594,26.27625A12.19042,12.19042,0,0,1,37.50556,14.00958"/><path class="j" d="M37.235,30.69587a9.41733,9.41733,0,1,0-13.31682,0A9.41238,9.41238,0,0,0,37.235,30.69587Z"/><path class="j" d="M24.65776,29.955a8.37,8.37,0,1,1,11.83631-.00129A8.36675,8.36675,0,0,1,24.65776,29.955Z"/><circle class="j" cx="30.57592" cy="24.03681" r="7.32522"/><path class="j" d="M26.13569,28.47962a6.28171,6.28171,0,1,1,8.87916-.00516A6.27751,6.27751,0,0,1,26.13569,28.47962Z"/><circle class="j" cx="30.57592" cy="24.03681" r="5.23267"/><path class="j" d="M27.61748,26.99525a4.18477,4.18477,0,1,1,5.91816,0A4.18087,4.18087,0,0,1,27.61748,26.99525Z"/><path class="k" d="M25.48756,35.1129A12.18972,12.18972,0,0,0,41.68422,19.018"/><circle class="f" cx="71.111" cy="24.03552" r="12.69962"/><circle class="g" cx="71.111" cy="24.03681" r="12.69962"/><circle class="h" cx="71.111" cy="24.03681" r="2.1544"/><path class="i" d="M59.12909,26.27625A12.19041,12.19041,0,0,1,78.04064,14.00958"/><path class="j" d="M77.77005,30.69587a9.41733,9.41733,0,1,0-13.31682,0A9.41238,9.41238,0,0,0,77.77005,30.69587Z"/><path class="j" d="M65.19284,29.955a8.37,8.37,0,1,1,11.83632-.00129A8.36677,8.36677,0,0,1,65.19284,29.955Z"/><circle class="j" cx="71.111" cy="24.03681" r="7.32522"/><path class="j" d="M66.67077,28.47962a6.28171,6.28171,0,1,1,8.87917-.00516A6.27751,6.27751,0,0,1,66.67077,28.47962Z"/><circle class="j" cx="71.111" cy="24.03681" r="5.23267"/><path class="j" d="M68.15257,26.99525a4.18477,4.18477,0,1,1,5.91815,0A4.18086,4.18086,0,0,1,68.15257,26.99525Z"/><path class="k" d="M66.02265,35.1129A12.18972,12.18972,0,0,0,82.2193,19.018"/><circle class="l" cx="48.10105" cy="30.64299" r="1.00429"/><circle class="m" cx="51.10963" cy="30.64299" r="1.00429"/><circle class="n" cx="54.11821" cy="30.64299" r="1.00429"/></svg>